<?xml version="1.0" encoding="utf-8"?>
<!-- Generator: Adobe Illustrator 23.0.6, SVG Export Plug-In . SVG Version: 6.00 Build 0)  -->
<svg version="1.1" id="Capa_1" xmlns="http://www.w3.org/2000/svg" xmlns:xlink="http://www.w3.org/1999/xlink" x="0px" y="0px"
	 viewBox="0 0 524 427" style="enable-background:new 0 0 524 427;" xml:space="preserve">
<style type="text/css">
	.st0{fill:#C2D8EE;}
</style>
<title>Shape</title>
<desc>Created with Sketch.</desc>
<path class="st0" d="M463,267.1l-3.6-1.4l-0.3-3.8c-0.1-1.8-0.6-3.6-1.5-5.2c-3.2-6.1-8.4-7.3-19-7.7l-3.9-0.1l-1.5-3.6
	c-7.9-19.1-15.5-37.2-22.2-53.2c-27.3-64.7-39.2-93.8-37-104.3l0.9-4.2l4.2-0.6c5.4-0.8,10.3-3.6,13.7-7.9l1.8-2.3h6.4
	c14.5,0,26.2-11.8,26.2-26.2c0-14.5-11.8-26.2-26.2-26.2h-6.1l-1.8-2.2c-4.7-5.8-12.9-6.1-14.5-6.1c0,0-0.1,0-0.2,0
	c-24,0.2-40.7,11.6-45.8,31.3l-1.4,5.3l-32.4,0c-0.9,0-1.6,0.7-1.6,1.6s0.7,1.6,1.6,1.6h32.1l0,6c0,9.8,2,20.9,6,33
	c18.3,55.5,18.5,174.5-5.6,208c-6.3,8.7-13.1,10.5-17.8,10.5l-23.2,0.1c-9.4,0-18-5.9-21.4-14.6c-13.4-34.6-21.7-56-26.9-69.2
	c-6-15.5-7.8-20.1-8.2-21.1l-0.6-1.2v-8.9c0-8.5-6.9-15.5-15.5-15.5h-96.9V69.3c0-3.7-3-6.7-6.7-6.7h-10.9c-0.9,0-1.6,0.7-1.6,1.6
	s0.7,1.6,1.6,1.6h14.5v113H15.1v-113H73c0.9,0,1.6-0.7,1.6-1.6s-0.7-1.6-1.6-1.6H18.7c-3.7,0-6.7,3-6.7,6.7v105.9
	c0,3.7,3,6.7,6.7,6.7h29l31.8,38.8l-2.6,3.7c-12.2,17.4-22.2,37.9-30.8,62.5c-3.2,9-6.6,20.7-6.9,21.7l-0.1,0.3
	c-2.2,7.3-1.1,14.8,3.2,20.6c4.1,5.6,10.5,8.7,17.6,8.7h19.9l0.4,5.6c2.8,39.7,36.3,70.8,76.1,70.8c39.8,0,73.2-31.1,76.1-70.8
	l0.4-5.6h126.4l0.4,5.6c2.9,39.7,36.3,70.8,76.1,70.8c42.1,0,76.3-34.2,76.3-76.3C512,307,492.3,278.3,463,267.1z M397.1,63.2
	c0.6-11,1.1-18,1.4-22.7c0.5-7.7,0.5-8.4,0.4-10.1l-0.9-8.3l8.1,1.8c10.5,2.3,18,11.8,18,22.5c0,11.7-8.7,21.5-20.3,22.9l-7.1,0.9
	L397.1,63.2z M96.2,194.3c0-6.8,5.5-12.4,12.4-12.4h109.2c6.8,0,12.4,5.5,12.4,12.4v9.2H96.2V194.3z M51.7,181.9h42.3v6.9l-0.3,0.9
	c-0.7,2.4-0.7,4.2-0.7,7.4c0,1.5,0,3.2,0,5.2l-0.1,2.2l-1.5,1.6c-1.8,1.9-3.6,4-5.5,6.4l-4.6,5.6L51.7,181.9z M229.2,344.8
	c-1.6,18.1-9.9,35-23.4,47.4c-13.6,12.5-31.1,19.3-49.5,19.3c-18.4,0-36-6.9-49.5-19.4c-13.5-12.4-21.8-29.2-23.4-47.4l-0.6-6.5
	h34.5l0.7,5.2c2.6,19,19,33.4,38.2,33.4s35.7-14.4,38.2-33.4l0.7-5.2h34.5L229.2,344.8z M120.1,338.3h72.5l-1.5,7.2
	c-3.4,16.4-18,28.3-34.8,28.3s-31.4-11.9-34.8-28.3L120.1,338.3z M346.2,335.2H229.5l6.5-9.4c4.8-7,5-14.9,5-16.4c0-0.1,0-0.1,0-0.2
	c0-24.3-10-46.1-28.1-61.6c-17.9-15.3-42-23.2-67.9-22.5c-0.8,0-1.5,0.8-1.5,1.6c0,0.5,0.3,0.9,0.5,1.1c0.2,0.2,0.6,0.4,1.1,0.4
	c1.3,0,2.5-0.1,3.8-0.1c23.3,0,45.2,7.7,61.6,21.7c17.6,15,27.3,36.1,27.3,59.4v0.1c0,0.2,0,0.3,0,0.5l0,0.2
	c-0.1,4.2-1.5,14.8-12.3,21.4c-5.3,3.3-10.3,3.8-15.1,3.8c-1.1,0-2.2,0-3.3-0.1c-2.2-0.1-4.4-0.1-6.9,0l-0.3,0l-38.5,0
	c-90.9,0-101.6,0-103.2-0.1v0c-4.2-0.3-8.6-2.4-11.6-5.4c-8.1-8.1-5.5-16.7-3.5-23.6l0.4-1.3c5.8-19.7,17.3-31.5,24.8-39.3
	c1.9-2,3.6-3.7,4.8-5.2l0.4-0.4c12.2-12.3,26.4-21.2,42.4-26.4c0.8-0.3,1.3-1.2,1-2c-0.3-0.8-1.1-1.2-2-1c-13.9,4.6-37,17.5-57.7,43
	l-4.3,5.5c0,0,10.8-27.5,15.1-34.2c2.8-4.4,16.1-25.8,25.5-36.2l1.8-2h136.1l34.6,89.2c6.1,15.6,21.3,16.5,24.3,16.6l0.2,0l23-0.1
	c7.7,0,14.2-3.9,19.9-11.7c12.7-17.6,19.9-55.2,19.8-103.1c-0.1-40.5-5.4-83.9-13.3-107.9c-3.9-11.8-5.9-22.6-5.8-32l0-6h35.3
	c0.9,0,1.6-0.7,1.6-1.6s-0.7-1.6-1.6-1.6h-35l2.4-8c1.2-3.4,2.8-6.5,4.8-9.3c9.5-13.2,25.4-16.1,37-16.2l0.7,0l0.1,0
	c4.4,0.2,8.7,2.1,11.7,5.3c3.4,3.5,5,8.2,4.8,13l-1.8,30.3c-0.5,8.3-6.9,15.1-15.2,16.2c-3,0.4-5.2,1.7-6.5,4
	c-5.7,9.9,5.8,37.1,33.4,102.8c6.7,15.9,14.2,33.9,22.8,54.6l3,7.2l-7.8,1c-20,2.6-38.7,11.9-52.6,26.3
	c-14.1,14.5-22.8,33.6-24.4,53.7L346.2,335.2z M349.2,335.2l0.6-6.6c2.2-23.1,13.4-43.7,31.6-58c18.6-14.7,42.1-21.1,66.1-17.8l0,0
	c3.2,0.4,5.9,2.4,7.4,5.3c1.5,2.9,1.5,6.4,0,9.3l0,0c0,0.1-0.1,0.2-0.2,0.3L437.4,302c-0.9,1.4-1.9,3.6-3,5.8
	c-4.8,10.2-12.7,27.3-35.1,27.3H349.2z M435.7,411.5c-18.4,0-36-6.9-49.5-19.3c-13.5-12.4-21.8-29.2-23.4-47.4l-0.6-6.5h34.5
	l0.7,5.2c2.6,19,19,33.4,38.2,33.4c20.2,0,37.1-15.7,38.5-35.8c0-0.5-0.2-0.9-0.4-1.1c-0.2-0.2-0.5-0.5-1.1-0.5
	c-0.5,0-0.9,0.2-1.1,0.4c-0.2,0.2-0.5,0.5-0.5,1.1c-1.3,18.5-16.8,33-35.4,33c-17.1,0-31.8-12.2-34.9-29.1l-1.1-6l6-1
	c20-3.4,27.2-19.2,30.7-26.8c1-2.1,1.6-3.5,2.5-4.7l2.5-3.2l3.9,1.1c6.3,1.8,12.1,5.3,16.5,10.1c0.4,0.4,0.8,0.5,1.1,0.5
	c0.3,0,0.7,0,1.1-0.4c0.4-0.4,0.5-0.8,0.5-1.1c0-0.3,0-0.7-0.4-1.1c-4.2-4.6-9.6-8.1-15.5-10.2l-6.4-2.3l15.9-31.3l5.1,2.1
	c27.8,11.3,45.8,37.9,45.8,67.9C508.9,378.7,476.1,411.5,435.7,411.5z"/>
</svg>
