<?xml version="1.0" encoding="UTF-8"?>
<svg width="252px" height="44px" viewBox="0 0 252 44" version="1.1" xmlns="http://www.w3.org/2000/svg" xmlns:xlink="http://www.w3.org/1999/xlink">
    <!-- Generator: Sketch 56.3 (81716) - https://sketch.com -->
    <title>Group 18</title>
    <desc>Created with Sketch.</desc>
    <defs>
        <polygon id="path-1" points="0.016534375 0.154628571 36.9787635 0.154628571 36.9787635 43.6302521 0.016534375 43.6302521"></polygon>
        <polygon id="path-3" points="0 0.100470435 39.855581 0.100470435 39.855581 42.6656096 0 42.6656096"></polygon>
        <polygon id="path-5" points="0.231930456 0.150943396 12.9621471 0.150943396 12.9621471 19.7192651 0.231930456 19.7192651"></polygon>
    </defs>
    <g id="Page-1" stroke="none" stroke-width="1" fill="none" fill-rule="evenodd">
        <g id="homepage" transform="translate(-68.000000, -21.000000)">
            <g id="Group-18" transform="translate(68.000000, 21.000000)">
                <g id="Group-3" transform="translate(44.000000, 0.000000)">
                    <mask id="mask-2" fill="white">
                        <use xlink:href="#path-1"></use>
                    </mask>
                    <g id="Clip-2"></g>
                    <path d="M29.6092115,0.154628571 C27.4408573,0.154628571 25.4016177,1.16441008 24.0175865,2.8064605 C22.6963781,4.32168739 22.4420031,5.26454454 22.4420031,8.35452773 L22.4420031,25.1396034 C22.4420031,28.0458218 20.995149,29.8080403 18.4957219,29.8080403 C15.9997635,29.8080403 14.5529094,27.9822252 14.5529094,24.9521412 L14.5529094,8.35452773 C14.5529094,5.38841008 14.0268156,3.81661176 12.5699406,2.35832605 C11.2591385,1.03758655 9.22298229,0.154628571 7.24964896,0.154628571 C5.14450313,0.154628571 2.90985729,1.22800672 1.52968021,2.87338487 C0.277846875,4.44518319 0.016534375,5.45866218 0.016534375,9.42827563 L0.016534375,24.2599731 C0.016534375,29.8080403 0.874086458,32.7715697 3.56891979,36.3130151 C7.05809688,40.8509311 12.6393156,43.6303261 18.4957219,43.6303261 C23.693451,43.6303261 28.8287427,41.3560067 32.377274,37.4462924 C35.5353781,34.0390655 36.9787635,29.9385613 36.9787635,24.2599731 L36.9787635,9.30441008 C36.9787635,5.51560336 36.6511594,4.25809076 35.2702115,2.6759395 C33.9528573,1.16441008 31.7182115,0.154628571 29.6092115,0.154628571" id="Fill-1" fill="#EE7D00" mask="url(#mask-2)"></path>
                </g>
                <g id="Group-6">
                    <mask id="mask-4" fill="white">
                        <use xlink:href="#path-3"></use>
                    </mask>
                    <g id="Clip-5"></g>
                    <path d="M22.1070095,28.177227 C20.4117714,29.3232704 19.246819,29.5128443 14.3058667,29.5808965 L14.3058667,13.1818183 L15.470819,13.1818183 C17.6967238,13.1818183 19.1092952,13.3609226 20.3081524,13.7905487 L20.3081524,13.8006443 C20.5462476,13.8713139 20.7767238,13.9730183 20.9972952,14.0743487 C23.7953905,15.4137052 25.6216762,18.2849835 25.6216762,21.4135139 C25.6216762,24.0271661 24.2536762,26.64194 22.1070095,28.177227 M38.4597714,13.8006443 C37.2609143,10.6350965 35.2971048,7.77727913 32.6986286,5.52482696 C28.4811048,1.82495739 23.471581,0.100470435 16.9694857,0.100470435 L8.19005714,0.100470435 C4.02777143,0.100470435 1.36453333,1.70007043 0.323771429,4.76092261 C-3.80952381e-05,5.71440087 -3.80952381e-05,6.09654 -3.80952381e-05,9.6711487 L-3.80952381e-05,33.0882009 C-3.80952381e-05,36.0301487 -3.80952381e-05,36.7267487 0.26167619,37.6806009 C0.716533333,39.3445139 1.62967619,40.4913052 3.25939048,41.5124617 C4.55500952,42.4087313 5.91615238,42.6656096 9.29939048,42.6656096 L15.3466286,42.6656096 C18.3306286,42.6656096 20.9390095,42.4726704 22.6929143,42.1548443 C26.4624381,41.3804704 30.1077714,39.5337139 32.8952,36.9840009 C37.319581,32.9663052 39.855581,27.2200096 39.855581,21.3492009 C39.855581,18.7448965 39.3694857,16.188453 38.4597714,13.8006443" id="Fill-4" fill="#EE7D00" mask="url(#mask-4)"></path>
                </g>
                <path d="M119.758577,0 C117.377581,0 115.072632,1.21152448 113.823072,3.04984073 C112.764981,4.50776435 112.503256,5.77698047 112.503256,8.57781663 L112.503256,16.4517952 L110.390933,13.9539332 L100.970791,2.80083616 C99.329803,0.824432172 97.6818668,0 95.5764921,0 C91.0306741,0 88,2.98954366 88,7.49730801 L88,34.301217 C88,37.4150769 88.3281204,38.6809431 89.5190043,40.2698826 C90.8944076,41.9872325 93.0731268,43 95.3109077,43 C97.4861526,43 99.5289914,42.0441798 100.915203,40.46194 C102.168623,38.9366474 102.562754,37.6644536 102.562754,34.8732948 L102.562754,25.9757548 L114.0184,40.1384946 C115.537019,42.0441798 117.447065,43 119.758577,43 C121.993269,43 124.101732,42.0441798 125.4146,40.3979209 C126.668019,38.8089814 127,37.4150769 127,34.0421629 L127,8.13005505 C127,5.5276037 126.539087,4.06335261 125.278333,2.53806004 C123.899456,0.949492764 121.923013,0 119.758577,0" id="Fill-7" fill="#EE7D00"></path>
                <path d="M160.881588,21.0271187 L165.814644,13.9541847 L168.096669,10.6717448 C168.810132,9.65526405 169.196513,8.32166815 169.196513,6.98881666 C169.196513,3.23517039 165.916999,0 162.042996,0 C159.658616,0 157.595276,1.14786763 156.174015,3.23517039 L148.815788,13.9541847 L148.310056,14.6777433 L148.310056,7.87726026 C148.310056,5.33922219 147.804324,3.75029646 146.448026,2.35342641 C145.156692,0.888815795 143.158315,0 141.094975,0 C136.838745,0 134,3.17785145 134,7.8136139 L134,34.9980524 C134,39.8924945 136.78058,43 141.224901,43 C145.481886,43 148.310056,39.8251262 148.310056,34.9340339 L148.310056,27.6351739 L158.948174,40.9059976 C159.979656,42.1785526 161.912692,43 163.901248,43 C167.779029,43 171,39.7611076 171,35.8898458 C171,34.4222576 170.549412,33.1534247 169.650878,32.0788806 L160.881588,21.0271187 Z" id="Fill-9" fill="#EE7D00"></path>
                <path d="M227.752014,0 C225.381055,0 223.076878,1.21152448 221.823458,3.04984073 C220.768841,4.50776435 220.503642,5.77698047 220.503642,8.57781663 L220.503642,16.4517952 L218.394794,13.9539332 L208.974265,2.80083616 C207.330575,0.824432172 205.678393,0 203.576492,0 C199.03106,0 196,2.98954366 196,7.49730801 L196,34.301217 C196,37.4150769 196.328506,38.6809431 197.508582,40.2698826 C198.898268,41.9872325 201.076601,43 203.311294,43 C205.490013,43 207.525517,42.0441798 208.911343,40.46194 C210.168623,38.9366474 210.560051,37.6644536 210.560051,34.8732948 L210.560051,25.9757548 L222.018786,40.1384946 C223.537791,42.0441798 225.447065,43 227.752014,43 C230.000604,43 232.102504,42.0441798 233.415372,40.3979209 C234.668405,38.8089814 235,37.4150769 235,34.0421629 L235,8.13005505 C235,5.5276037 234.539473,4.06335261 233.293002,2.53806004 C231.903316,0.949492764 229.930733,0 227.752014,0" id="Fill-11" fill="#EE7D00"></path>
                <g id="Group-15" transform="translate(239.000000, 0.000000)">
                    <mask id="mask-6" fill="white">
                        <use xlink:href="#path-5"></use>
                    </mask>
                    <g id="Clip-14"></g>
                    <path d="M6.60220294,0.150792453 C2.81537941,0.150792453 0.232202941,4.67003774 0.232202941,8.41418868 C0.232202941,10.0726792 0.207732353,12.2809811 0.622585294,14.3051321 C1.14832059,16.8409811 2.37605588,19.0904151 5.26052647,19.6398491 C8.30711471,20.2270189 10.3890265,17.469283 11.6129382,14.3051321 C12.5229382,11.929283 12.9622618,9.34928302 12.9622618,7.74815094 C12.9622618,4.00437736 10.3825265,0.150792453 6.60220294,0.150792453" id="Fill-13" fill="#E6378C" mask="url(#mask-6)"></path>
                </g>
                <path d="M181.937726,0 C179.900224,0 178.058864,0.824432172 176.783934,2.28905547 C175.320317,3.87464511 175,5.14386123 175,8.70213282 L175,34.9339641 C175,37.8561388 175.448594,39.31704 176.783934,40.7786857 C177.99137,42.1148986 180.092638,43 181.998508,43 C183.840241,43 185.876625,42.1148986 187.219423,40.6469254 C188.49398,39.2496711 189,37.5970847 189,34.9339641 L189,8.70213282 C189,5.26854962 188.554762,3.810626 187.158641,2.21833668 C185.876625,0.824432172 183.9715,0 181.937726,0" id="Fill-16" fill="#EE7D00"></path>
            </g>
        </g>
    </g>
</svg>